<svg id="Layer_1" data-name="Layer 1" xmlns="http://www.w3.org/2000/svg" viewBox="0 0 512 512"><defs><style>.cls-1{fill:#552583;}.cls-2{fill:#552084;}.cls-3{fill:#fdb927;}</style></defs><path class="cls-1" d="M113,260.59l-6.77,6.77L94.5,255.59V230h9.58v21.63ZM136.5,230v25.6L120.1,272h-9.2l-2.17-2.17,18.2-18.2V230Z"/><path class="cls-2" d="M186.3,239.58H153.78l6.61,6.62H186.3v9.6H160.48l-6.6,6.58H186.3V272h-42V258.36l2.58-2.58,4.75-4.74-7.33-7.35V230h42Z"/><path class="cls-2" d="M225.51,262.39,235.1,272H199.24l-6.14-6.14V236.12l6.15-6.14H235.1l-9.6,9.59H202.68v22.81Z"/><path class="cls-2" d="M258.81,230l-9.6,9.59h-11.3V230Zm21.1,0v9.6H267.85l-4.16,4.16V272h-9.57V239.61l0,0h0l9.6-9.59Z"/><path class="cls-2" d="M312.2,262.38l9.59,9.6H290.37l-5.67-5.67V230l9.58,9.58v22.8Zm14.51-26.74V272l-9.6-9.59h0V239.57H299.19L289.6,230H321Z"/><path class="cls-2" d="M374.5,243.73l-10.73,10.73L374.5,265.2l0,6.79-6.74,0-16.2-16.2H346.3L342.08,260v12H332.5V255.8l9.63-9.63h16.22l6.59-6.58H342.08v1.72l-9.58,9.57V235.67l5.69-5.68H374.5Z"/><path class="cls-1" d="M423,230v9.65H397.18l-6.49,6.49h13.67l-9.62,9.62H381V242.11L393.09,230Zm-13.71,16.15H423V272H381v-9.6h32.43v-6.63H399.65Z"/><polygon class="cls-3" points="109.66 255.97 102.89 262.74 91.12 250.97 91.12 225.37 100.7 225.37 100.7 247 109.66 255.97"/><polygon class="cls-3" points="133.12 225.37 133.12 250.97 116.72 267.37 107.52 267.37 105.35 265.2 123.55 247 123.55 225.37 133.12 225.37"/><polygon class="cls-3" points="179.92 234.96 147.4 234.96 154 241.58 179.92 241.58 179.92 251.18 154.09 251.18 147.5 257.76 179.92 257.76 179.92 267.36 137.92 267.36 137.92 253.74 140.5 251.16 145.26 246.42 137.92 239.07 137.92 225.36 179.92 225.36 179.92 234.96"/><polygon class="cls-3" points="220.13 257.77 229.71 267.36 193.86 267.36 187.72 261.22 187.72 231.5 193.87 225.36 229.71 225.36 220.12 234.95 197.29 234.95 197.29 257.76 220.13 257.77"/><polygon class="cls-3" points="255.43 226.37 245.83 235.96 234.52 235.97 234.52 226.37 255.43 226.37"/><polygon class="cls-3" points="275.52 226.37 275.52 235.97 263.47 235.97 259.31 240.12 259.31 268.37 249.74 268.37 249.74 235.99 249.76 235.96 249.75 235.96 259.34 226.37 275.52 226.37"/><polygon class="cls-3" points="308.81 257.76 318.41 267.36 286.98 267.36 281.32 261.69 281.32 225.38 290.9 234.96 290.9 257.76 308.81 257.76"/><polygon class="cls-3" points="320.32 231.02 320.32 267.35 310.73 257.76 310.75 257.76 310.75 234.95 292.81 234.95 283.21 225.36 314.66 225.36 320.32 231.02"/><polygon class="cls-3" points="370.12 239.11 359.38 249.84 370.12 260.58 370.1 267.37 363.35 267.34 347.15 251.14 341.92 251.14 337.7 255.37 337.7 267.37 328.12 267.37 328.12 251.18 337.75 241.55 353.97 241.55 360.55 234.97 337.7 234.97 337.7 236.69 328.12 246.26 328.12 231.05 333.81 225.37 370.12 225.37 370.12 239.11"/><polygon class="cls-3" points="417.92 225.37 417.92 235.01 392.1 235.02 385.62 241.5 385.62 241.52 399.29 241.52 389.66 251.14 375.92 251.14 375.92 237.49 388.01 225.4 417.92 225.37"/><polygon class="cls-3" points="404.2 241.52 417.92 241.52 417.92 267.35 375.92 267.37 375.92 257.77 408.35 257.77 408.34 251.14 394.58 251.14 404.2 241.52"/><path class="cls-3" d="M87.26,294.64c5.37-11.42,20.4-13.76,33-13.72,43,.12,85.56,10.08,128.51,8.87,30.75-.86,61-7.44,91.67-10.27s62.74-1.62,90.28,12.08"/></svg>